<?xml version="1.0" encoding="utf-8"?>
<svg clip-rule="evenodd" fill-rule="evenodd" stroke-linejoin="round" stroke-miterlimit="1.41421" viewBox="0 0 380 380" xmlns="http://www.w3.org/2000/svg">
  <g fill-rule="nonzero" transform="matrix(4.66926, 0, 0, 4.66926, 9.968744, 127.187126)">
    <path d="m28 8.9h-4.1c-1.9 0-2.8-.3-2.8-1v-3.2c0-.6.9-1 2.8-1h4.1c1.9 0 2.8.3 2.8 1v3.2c0 .7-.9 1-2.8 1m0 1.5c3.4 0 5.1-.9 5.1-2.6v-3c0-1.8-1.7-2.6-5.1-2.6h-4.1c-3.4 0-5.1.9-5.1 2.6v3c0 1.8 1.7 2.6 5.1 2.6z"/>
    <path d="m72 8.9h-4.1c-1.9 0-2.8-.3-2.8-1v-3.2c0-.6.9-1 2.8-1h4.1c1.9 0 2.8.3 2.8 1v3.2c0 .7-.9 1-2.8 1m0 1.5c3.4 0 5.1-.9 5.1-2.6v-3c0-1.8-1.7-2.6-5.1-2.6h-4.1c-3.4 0-5.1.9-5.1 2.6v3c0 1.8 1.7 2.6 5.1 2.6z"/>
    <path d="m16.5 7.8v-2.1c0-.4-.3-.6-.9-.6h-5c-.5 0-.8.4-.8.8s.4.8.8.8h3.4v1.1c0 .3-.4.7-1.2.8-.6.2-1.1.2-1.6.2h-5.5c-2.2 0-3.3-.4-3.3-1.1v-5.1c0-.7 1.3-1 3.9-1h1.5c.6 0 .9-.3.9-.8.1-.5-.2-.8-.8-.8h-2.2c-1.3 0-2.5.1-3.6.5-1.3.4-2.1 1.1-2.1 2.1v5.2c0 1 .7 1.7 2 2.1 1 .3 2.2.5 3.7.5h5.5c1.3 0 2.5-.2 3.4-.5 1.2-.5 1.9-1.2 1.9-2.1"/>
    <path d="m49.8 4.1c0 .8-1.1 1.1-3.2 1.1h-8.6v-3.7h8.6c2.1 0 3.2.2 3.2 1.1zm.3-3.7c-1-.2-2.1-.4-3.5-.4h-10.3c-.4 0-.7.3-.7.7v9.1c0 .5.3.7.9.7h.7c.6 0 .9-.2.9-.7v-3.1h8.6c1.5 0 2.6-.2 3.6-.5 1.3-.5 2-1.2 2-2.3v-1.6c-.1-.8-.8-1.4-2.2-1.9"/>
    <path d="m60.3 2.2c-2.1 0-3 0-4.3.5-1.2.5-1.7 1.3-1.7 2.1v5c0 .4.3.7.8.7h.7c.5 0 .8-.2.8-.7v-5c0-.7.9-1 2.7-1h1c.6 0 .9-.3.9-.8-.1-.5-.4-.8-.9-.8"/>
  </g>
  <g stroke-width="4.66926" transform="matrix(1, 0, 0, 1, -90.031258, -17.715866)">
    <path d="m100 205.60338h77.976642v49.494156h-77.976642z" fill="#109dd9"/>
    <path d="m193.852126 205.60338h77.976642v49.494156h-77.976642z" fill="#109dd9"/>
    <path d="m287.704252 205.60338h77.976642v49.494156h-77.976642z" fill="#075daa"/>
    <path d="m381.556378 205.60338h77.976642v49.494156h-77.976642z" fill="#e8e8ea"/>
  </g>
</svg>