<?xml version="1.0" encoding="utf-8"?><!-- Uploaded to: SVG Repo, www.svgrepo.com, Generator: SVG Repo Mixer Tools -->
<svg width="800px" height="800px" viewBox="0 -81 252 252" xmlns="http://www.w3.org/2000/svg"><path d="M0 0h252v90H0z"/><path fill="#FFF" d="M66.127 39.943c0 2.504-1.552 4.365-4.655 5.586-2.41.951-5.349 1.432-8.819 1.432H38.428c-3.73 0-6.862-.434-9.407-1.291-3.498-1.176-5.252-3.053-5.252-5.635v-13.81c0-2.481 1.783-4.313 5.359-5.502 2.823-.889 5.936-1.338 9.348-1.338h5.648c1.523 0 2.284.68 2.284 2.041 0 1.367-.761 2.055-2.284 2.055h-1.725c-.164 0-.26-.006-.28-.023-.433-.014-.819-.021-1.156-.029-.338-.008-.617-.016-.819-.016-6.737 0-10.111.934-10.111 2.803v13.797c0 1.871 2.824 2.807 8.472 2.807h14.158c1.349 0 2.795-.201 4.318-.611 1.918-.516 2.881-1.205 2.881-2.086v-2.934h-8.803c-1.161 0-2.112-.994-2.112-2.209 0-1.217.951-2.211 2.112-2.211h10.585c.535-.055 1.302-.049 2.286-.049 1.465 0 2.197.588 2.197 1.77v5.453M103.09 40.082v-8.357c0-1.717-2.429-2.6-7.344-2.6h-9.715c-1.793 0-3.412.186-4.858.557-2.024.559-3.007 1.348-3.007 2.414v7.986c0 1.021 1.041 1.811 3.065 2.275 1.388.324 3.007.465 4.858.465h9.657c1.561 0 3.064-.186 4.452-.512 1.909-.509 2.892-1.253 2.892-2.228m6.014 0c0 2.508-1.504 4.318-4.569 5.434-2.139.883-5.031 1.347-8.616 1.347h-9.888c-3.296 0-6.246-.464-8.906-1.347-3.296-1.162-4.915-2.973-4.915-5.434v-7.986c0-2.414 1.619-4.27 4.858-5.523 2.428-.977 5.377-1.439 8.905-1.439h9.946c8.79 0 13.185 2.275 13.185 6.918v8.03zM181.186 27.361c0 1.207-.926 1.811-2.66 1.811-.231 0-.578 0-1.041-.047h-1.1c-4.568 0-6.824.883-6.824 2.74v13.186c0 .883-.461 1.439-1.271 1.672-.349.094-1.215.14-2.603.14-1.389 0-2.082-.604-2.082-1.812V31.865c0-2.879 1.793-4.783 5.437-5.803 2.197-.652 5.493-.93 9.89-.93 1.504.001 2.254.743 2.254 2.229M216.182 40.082v-8.357c0-1.717-2.429-2.6-7.343-2.6h-9.715c-1.794 0-3.412.186-4.858.557-2.023.559-3.006 1.348-3.006 2.414v7.986c0 1.021 1.041 1.811 3.063 2.275 1.389.324 3.007.465 4.854.465h9.66c1.561 0 3.062-.186 4.451-.512 1.91-.509 2.894-1.253 2.894-2.228m6.013 0c0 2.508-1.504 4.318-4.567 5.434-2.14.883-5.032 1.347-8.616 1.347h-9.888c-3.298 0-6.246-.464-8.905-1.347-3.298-1.162-4.916-2.973-4.916-5.434v-7.986c0-2.414 1.618-4.27 4.856-5.523 2.43-.977 5.378-1.439 8.905-1.439h9.945c8.789 0 13.186 2.275 13.186 6.918v8.03zM151.957 29.387v-3.762c0-1.578-2.725-2.414-8.171-2.414h-22.195v9.566h22.195c5.446 0 8.171-1.162 8.171-3.39m6.259.185c0 2.74-1.737 4.736-5.157 5.992-2.666.881-5.854 1.299-9.619 1.299h-21.849v8.082c0 .881-.406 1.438-1.333 1.67-.232.094-1.159.141-2.724.141-1.449 0-2.202-.604-2.202-1.811V20.889c0-1.162.753-1.766 2.202-1.766h26.194c3.535 0 6.549.418 9.039 1.162 3.652 1.113 5.448 2.785 5.448 4.969v4.318h.001zM91.362 62.955c-.266 1.113-.06 2.418.202 2.904.262.483 1.118.916 1.768.916.667 0 1.617-.314 2.096-.789.481-.475 1.145-1.611 1.439-2.844.25-1.037.063-2.023-.204-2.504-.268-.478-1.066-1.117-1.724-1.117-.626 0-1.637.287-2.134.772-.494.486-1.173 1.541-1.443 2.662m-2.857.096c.432-1.799 1.527-3.287 2.682-4.287 1.157-1.002 2.64-1.203 4.273-1.203 1.675 0 2.901.687 3.572 1.672.671.982 1.039 2.326.613 4.099a8.778 8.778 0 0 1-1.426 3.133c-.593.824-1.408 1.343-2.266 1.802-.86.459-1.881.563-2.999.563-1.135 0-2.028-.197-2.678-.595-.648-.396-1.399-1.021-1.657-1.879-.256-.856-.423-2.016-.114-3.305M77.077 68.5l2.379-10.77 4.939.018c.106 0 3.638-.18 3.465 2.811-.124 2.176-1.08 2.42-2.998 3.431.965 1.604 1.298 2.469 2.574 4.512H84.22c-.357-1.021-1.89-3.905-1.898-3.905l-1.665-.019-.845 3.938-2.735-.016m4.115-5.865h1.894c1.757 0 2.593-2.756.768-2.785l-1.982-.037-.68 2.822zM70.132 57.766l7.754.035-.406 1.982-5.007.035-.454 1.911 4.664.017-.435 2.053h-4.77l-.556 2.732 4.947-.086-.299 2.088-7.853-.088zM58.504 57.73l2.828.018-.961 3.926 4.07.105.873-4.013 2.808.035L65.671 68.5l-2.789.016 1.069-4.702-4.07-.035-1.123 4.737-2.776-.016zM99.732 68.484h2.571l.709-2.802h-2.571z"/><path fill="#00AEEF" d="M110.044 53.648h23.841v18.229h-23.841zM138.801 53.648h23.842v18.229h-23.842z"/><path fill="#005DAC" d="M167.747 53.646h23.84v18.229h-23.84z"/><path fill="#FFF" d="M197.303 53.648h23.842v18.229h-23.842zM46.063 63.604h1.846c-.02-.636.433-.957 1.345-.953.754.016 1.175.258 1.262.715 0 .588.012 1.141.024 1.691-.405-.474-1.159-.746-2.262-.822-1.745.164-2.587.969-2.523 2.42.063 1.268.968 1.941 2.713 2.014.917.041 1.615-.23 2.106-.846.013.268.013.508.013.75h1.701c.013-1.84.013-3.666.013-5.494-.428-.953-1.147-1.461-2.143-1.523-.877-.024-1.741-.024-2.606-.024-1.079.3-1.563.988-1.489 2.072M38.133 61.484h1.75c1.301 0 2.366 1.049 2.366 2.33v1.465h-4.733c-.199 1.441.172 2.141 1.091 2.1.336-.02.692-.02 1.05-.02.61.055.898-.275.885-1.072h1.708v.041c0 1.281-1.065 2.33-2.366 2.33h-1.75c-1.302 0-2.367-1.049-2.367-2.33v-2.514c-.001-1.281 1.064-2.33 2.366-2.33M27.266 58.559v9.935h5.763c1.563.104 2.358-.775 2.387-2.615.069-1.285-.46-2.125-1.605-2.496.899-.172 1.38-.928 1.421-2.286-.097-1.613-.988-2.468-2.676-2.576-1.785.004-3.568.01-5.29.038"/><path d="M29.18 60.229v2.535c.994-.021 1.929-.021 2.861-.021.81.014 1.2-.393 1.193-1.193-.041-.729-.384-1.148-1.028-1.279a74.954 74.954 0 0 1-3.026-.042M29.18 64.186v2.76c1.064-.021 2.064-.021 3.063-.021.868.016 1.287-.426 1.279-1.301-.044-.793-.411-1.25-1.103-1.393a83.959 83.959 0 0 1-3.239-.045M40.541 64.309c.09-1.078-.384-1.594-1.44-1.563-1.174-.008-1.702.521-1.585 1.586a48.42 48.42 0 0 1 3.025-.023M50.54 66.141c-.343-.606-1.095-.811-2.259-.604-.645.281-.893.709-.742 1.289.168.73.949.941 2.358.6.511-.205.725-.629.643-1.285"/><path fill="#FFF" d="M225.402 44.408a2.541 2.541 0 1 1 0 5.083 2.541 2.541 0 0 1 0-5.083"/><path d="M225.402 44.783c1.193 0 2.166.971 2.166 2.166s-.973 2.164-2.166 2.164a2.165 2.165 0 0 1 0-4.33"/><path fill="#FFF" d="M224.539 48.006v-2.402h1.07c.216 0 .379.02.488.063a.546.546 0 0 1 .271.229c.066.106.1.229.1.36a.61.61 0 0 1-.166.433c-.109.117-.283.188-.515.223.086.039.149.08.192.119.095.086.183.193.267.32l.42.653h-.401l-.318-.502a5.766 5.766 0 0 0-.23-.328.726.726 0 0 0-.164-.163.439.439 0 0 0-.145-.062 1.205 1.205 0 0 0-.18-.01h-.369v1.065l-.32.002z"/><path d="M224.857 46.662h.688c.146 0 .259-.014.343-.045a.361.361 0 0 0 .188-.143.392.392 0 0 0 .062-.218.347.347 0 0 0-.123-.278c-.082-.074-.213-.111-.394-.111h-.765v.795"/></svg>