<?xml version="1.0" standalone="no"?>
<!DOCTYPE svg PUBLIC "-//W3C//DTD SVG 20010904//EN"
 "http://www.w3.org/TR/2001/REC-SVG-20010904/DTD/svg10.dtd">
<svg version="1.0" xmlns="http://www.w3.org/2000/svg"
 width="700.000000pt" height="700.000000pt" viewBox="0 0 700.000000 700.000000"
 preserveAspectRatio="xMidYMid meet">
<metadata>
Created by potrace 1.14, written by Peter Selinger 2001-2017
</metadata>
<g transform="translate(0.000000,700.000000) scale(0.100000,-0.100000)"
fill="#000000" stroke="none">
<path d="M568 4655 c-2 -2 -31 -6 -66 -9 -100 -10 -223 -60 -271 -109 -24 -24
-42 -51 -42 -66 -1 -15 -3 -136 -4 -271 -1 -219 0 -249 17 -282 36 -75 142
-124 313 -146 28 -4 210 -7 405 -7 309 1 365 3 435 19 121 28 198 74 232 140
24 45 23 250 -1 274 -15 15 -46 17 -272 17 -241 0 -256 -1 -270 -19 -21 -29
-17 -70 9 -94 22 -21 33 -22 178 -22 l155 0 3 -48 c3 -72 -20 -96 -115 -117
-66 -14 -122 -16 -417 -12 -353 4 -390 8 -441 48 l-26 20 0 239 c0 230 1 240
21 259 34 32 104 43 294 48 208 5 225 11 225 71 0 67 0 67 -190 68 -93 0 -171
0 -172 -1z"/>
<path d="M3267 4640 c-21 -18 -21 -19 -21 -434 0 -488 -9 -451 110 -451 104 1
104 1 104 182 l0 143 398 1 c394 0 454 2 522 15 19 3 46 7 60 9 47 6 135 44
171 74 57 48 72 90 71 203 -1 115 -14 144 -82 188 -62 39 -110 57 -172 65 -29
4 -57 10 -63 13 -5 4 -250 7 -543 8 -495 1 -534 0 -555 -16z m1102 -126 c83
-19 99 -42 98 -144 0 -94 -15 -122 -75 -141 -26 -9 -170 -14 -489 -16 l-452
-4 0 152 c-1 83 2 155 5 160 9 15 848 9 913 -7z"/>
<path d="M2129 4466 c-2 -2 -30 -7 -63 -11 -127 -14 -235 -79 -256 -153 -13
-48 -13 -326 0 -374 20 -70 96 -123 215 -149 83 -18 639 -20 745 -3 130 20
216 70 246 141 10 23 14 80 14 200 0 214 -10 240 -102 291 -34 19 -89 38 -148
49 -29 6 -646 14 -651 9z m648 -150 c24 -10 45 -27 49 -39 4 -11 6 -88 6 -170
-1 -175 -3 -181 -98 -203 -81 -19 -558 -18 -639 1 -95 22 -97 27 -97 209 1 86
4 161 7 166 10 16 63 41 108 50 23 4 173 7 332 6 255 -1 295 -4 332 -20z"/>
<path d="M5155 4462 c-171 -25 -271 -86 -293 -180 -5 -20 -9 -140 -8 -265 l1
-228 25 -19 c19 -15 38 -19 83 -16 92 5 89 -3 89 270 -1 267 -1 266 78 290 25
7 94 14 153 15 120 2 153 12 161 47 8 31 -17 80 -45 87 -21 6 -205 5 -244 -1z"/>
<path d="M5888 4465 c-2 -2 -19 -6 -38 -9 -80 -13 -97 -19 -150 -45 -35 -18
-66 -43 -84 -69 l-30 -42 0 -172 c0 -95 3 -185 7 -200 10 -37 53 -86 96 -108
92 -46 149 -53 478 -55 172 -1 332 1 355 5 24 5 57 11 73 13 89 15 179 71 203
126 24 56 24 358 0 415 -30 67 -122 116 -254 134 -60 9 -648 14 -656 7z m674
-148 c21 -9 41 -25 47 -34 11 -22 9 -323 -2 -341 -10 -15 -46 -31 -92 -41 -16
-3 -163 -6 -325 -6 -262 0 -300 2 -343 18 -26 10 -51 26 -56 35 -10 21 -8 310
3 334 8 18 41 33 101 47 22 5 173 8 335 7 251 -2 301 -5 332 -19z"/>
<path d="M185 3084 l0 -456 690 0 c380 0 702 1 718 1 l27 1 0 455 0 455 -718
0 -718 0 1 -456z"/>
<path d="M1911 3085 c2 -411 3 -455 18 -455 25 -1 1320 -1 1374 -1 l47 1 0
455 0 455 -720 0 -720 0 1 -455z"/>
<path d="M3641 3085 c0 -350 3 -455 12 -455 21 -1 1381 -1 1403 -1 l21 1 -1
453 -1 452 -717 3 -718 2 1 -455z"/>
<path d="M5370 3085 c0 -426 1 -455 18 -456 107 -4 1403 0 1410 5 5 3 9 192 9
456 l0 450 -719 0 -718 0 0 -455z"/>
</g>
</svg>
