<svg xmlns="http://www.w3.org/2000/svg" viewBox="0 0 73 23" fill="none" aria-hidden="true">
  <path fill="#111111" fill-rule="evenodd" clip-rule="evenodd" d="M26.5461 8.60052C28.3539 8.60052 29.2114 8.29299 29.2114 7.66708V4.55872C29.2114 3.93307 28.3539 3.62554 26.5461 3.62554H22.6633C20.8558 3.62554 19.9986 3.93307 19.9986 4.55872V7.66708C19.9986 8.29299 20.8558 8.60052 22.6633 8.60052H26.5461ZM26.5461 10.0723H22.6633C19.4305 10.0723 17.8148 9.24426 17.8148 7.55079V4.67553C17.8148 2.9818 19.4305 2.15225 22.6633 2.15225H26.5461C29.779 2.15225 31.3952 2.9818 31.3952 4.67553V7.55079C31.3952 9.24426 29.779 10.0723 26.5461 10.0723Z"/>
  <path fill="#111111" fill-rule="evenodd" clip-rule="evenodd" d="M68.1323 8.60056H64.2498C62.4425 8.60056 61.585 8.29303 61.585 7.66712V4.55876C61.585 3.93336 62.4425 3.62584 64.2498 3.62584H68.1323C69.9401 3.62584 70.7976 3.93336 70.7976 4.55876V7.66712C70.7976 8.29303 69.9401 8.60056 68.1323 8.60056ZM68.1323 10.0723C71.3652 10.0723 72.9813 9.2443 72.9813 7.55108V4.67557C72.9813 2.98209 71.3652 2.1528 68.1323 2.1528H64.2498C61.0172 2.1528 59.4012 2.98209 59.4012 4.67557V7.55108C59.4012 9.2443 61.0172 10.0723 64.2498 10.0723H68.1323Z"/>
  <path fill="#111111" fill-rule="evenodd" clip-rule="evenodd" d="M15.577 7.51421V5.52587C15.577 5.09507 15.3093 4.89893 14.7698 4.89893H10.0363C9.60875 4.89893 9.25965 5.26176 9.25965 5.70418C9.25965 6.1479 9.60875 6.51022 10.0363 6.51022H13.2741V7.57933C13.2741 7.90004 12.8536 8.21015 12.1484 8.39854C11.5884 8.54791 11.1212 8.56239 10.6253 8.56239H5.41803C3.34274 8.56239 2.30301 8.22204 2.30301 7.53902V2.48909C2.30301 1.80814 3.54401 1.49208 6.02158 1.49208H7.48575C8.0455 1.49208 8.32655 1.24192 8.32655 0.743419C8.32655 0.247498 8.0455 0.000183105 7.48575 0.000183105H5.40812C4.15434 0.000183105 3.00016 0.136633 1.97086 0.487318C0.799733 0.886071 0.00012207 1.58744 0.00012207 2.49323V7.54909C0.00012207 8.49028 0.645651 9.17434 1.93175 9.60178C2.86746 9.91525 4.01851 10.0724 5.39013 10.0724H10.6216C11.8983 10.0724 12.9793 9.89819 13.8662 9.55061C15.0076 9.10637 15.577 8.42775 15.577 7.51421Z"/>
  <path fill="#111111" fill-rule="evenodd" clip-rule="evenodd" d="M47.143 3.92554C47.143 4.73803 46.12 4.97346 44.1169 4.97346H35.9764V1.49193H44.1169C46.12 1.49193 47.143 1.72761 47.143 2.53985V3.92554ZM47.4418 0.423592C46.5267 0.152502 45.4176 3.05176e-05 44.1169 3.05176e-05H34.331C33.9684 3.05176e-05 33.674 0.291278 33.674 0.651008V9.4122C33.674 9.85308 33.9506 10.0722 34.4827 10.0722H35.1674C35.6998 10.0722 35.9764 9.85308 35.9764 9.4122V6.46561H44.1169C45.5024 6.46561 46.5676 6.31495 47.5482 5.99373C48.8067 5.53554 49.4459 4.80703 49.4459 3.80899V2.23491C49.4459 1.43818 48.7853 0.829323 47.4418 0.423592Z"/>
  <path fill="#111111" fill-rule="evenodd" clip-rule="evenodd" d="M57.0665 2.15274C55.0584 2.15274 54.2085 2.11656 53.0191 2.60008C51.9004 3.05517 51.4238 3.855 51.4238 4.591V9.44374C51.4238 9.86343 51.6874 10.0722 52.1945 10.0722H52.8463C53.3531 10.0722 53.6164 9.86343 53.6164 9.44374V4.591C53.6164 3.91315 54.464 3.62578 56.1435 3.62578H57.0821C57.6304 3.62578 57.8906 3.37743 57.8906 2.889C57.8906 2.4029 57.615 2.15274 57.0665 2.15274Z"/>
  <mask id="mask0" maskUnits="userSpaceOnUse" x="0" y="0" width="73" height="23" style="mask-type:alpha">
    <path d="M0 22.8292H72.9815V0H0V22.8292Z" fill="#ffffff"/>
  </mask>
  <g mask="url(#mask0)">
    <path fill="#111111" fill-rule="evenodd" clip-rule="evenodd" d="M0 22.8292H15.8355V12.5533H0V22.8292Z"/>
    <path fill="#111111" fill-rule="evenodd" clip-rule="evenodd" d="M19.0486 22.8292H34.8841V12.5533H19.0486V22.8292Z"/>
    <path fill="#111111" fill-rule="evenodd" clip-rule="evenodd" d="M38.0969 22.8292H53.9324V12.5533H38.0969V22.8292Z"/>
    <path fill="#111111" fill-rule="evenodd" clip-rule="evenodd" d="M57.1454 22.8292H72.9807V12.5533H57.1454V22.8292Z"/>
  </g>
</svg>
